# xmcd
#
# Track frame offsets:
#	150
#	21976
#	53232
#	73079
#	93267
#	114991
#	134524
#	154616
#	177146
#	198391
#	212680
#	232613
#	258399
#
# Disc length: 3798 seconds
#
# Revision: 1
# Processed by: cddbd v1.5.2PL0 Copyright (c) Steve Scherf et al.
# Submitted via: audiograbber 1.83.01
#
DISCID=ab0ed40d
DTITLE=Colorado Five - Die 5te
DYEAR=2003
DGENRE=Country
TTITLE0=Made in Germany
TTITLE1=Lass es uns machen wie die Cowboys
TTITLE2=Tanz mit Mir
TTITLE3=Richtung Westen
TTITLE4=Rodeo
TTITLE5=Country tut Gut
TTITLE6=Bad Maria
TTITLE7=Tausend Sterne
TTITLE8=Höllenstamp
TTITLE9=Blackout
TTITLE10=Chilibohnen
TTITLE11=Nur der Wind
TTITLE12=Land Der Träume
EXTD=
EXTT0=
EXTT1=
EXTT2=
EXTT3=
EXTT4=
EXTT5=
EXTT6=
EXTT7=
EXTT8=
EXTT9=
EXTT10=
EXTT11=
EXTT12=
PLAYORDER=
